<?xml version="1.0" encoding="UTF-8"?>
<!DOCTYPE svg PUBLIC "-//W3C//DTD SVG 1.1//EN" "http://www.w3.org/Graphics/SVG/1.1/DTD/svg11.dtd">
<!-- Creator: CorelDRAW 2018 (64 Bit Versión de evaluación) -->
<svg xmlns="http://www.w3.org/2000/svg" xml:space="preserve" width="208.526mm" height="42.3334mm" version="1.1" style="shape-rendering:geometricPrecision; text-rendering:geometricPrecision; image-rendering:optimizeQuality; fill-rule:evenodd; clip-rule:evenodd"
viewBox="0 0 6361.94 1291.55"
 xmlns:xlink="http://www.w3.org/1999/xlink">
 <defs>
  <style type="text/css">
   <![CDATA[
    .fil0 {fill:white;fill-rule:nonzero}
   ]]>
  </style>
 </defs>
 <g id="Capa_x0020_1">
  <metadata id="CorelCorpID_0Corel-Layer"/>
  <g id="_2012999655920">
   <g id="_1754019908928">
    <path class="fil0" d="M5310.36 9.27l172.21 0 0 568.84 89.16 0 0 -568.84 172.21 0 0 1273.01 -172.21 0 0 -535.01 -89.16 0 0 535.01 -172.21 0 0 -1273.01zm-70.72 1273.01c-24.61,6.17 -58.44,9.22 -101.49,9.22 -55.33,0 -98.38,-6.17 -132.21,-21.5 -43.05,-21.5 -83.05,-55.33 -116.83,-104.55 -33.83,-49.22 -58.44,-119.93 -79.94,-206.04 -21.5,-86.1 -30.77,-187.59 -30.77,-301.36 0,-206.04 27.67,-365.91 86.1,-482.74 58.44,-116.83 135.32,-175.27 227.54,-175.27 21.5,0 39.99,3.06 61.5,9.22 18.44,6.16 46.11,18.44 83.05,36.89l0 199.87c-39.99,-49.22 -76.88,-73.78 -116.83,-73.78 -52.27,0 -92.27,36.89 -119.93,113.77 -27.67,76.88 -43.05,190.65 -43.05,344.36 0,95.33 6.16,178.32 15.39,249.09 9.22,73.77 24.61,126.05 39.99,162.99 12.28,27.67 30.77,52.27 55.33,70.72l0 -301.36 -67.66 0 0 -166.04 236.76 0 0 633.45 3.06 3.06zm-1106.97 -184.49c27.67,12.28 52.27,18.44 73.77,18.44 30.77,0 55.33,-9.22 73.77,-30.77 18.45,-18.44 27.67,-49.22 27.67,-86.1 0,-30.77 -3.06,-61.5 -9.22,-89.16 -12.28,-55.33 -36.89,-129.15 -70.72,-215.26 -33.83,-89.16 -61.5,-169.1 -76.88,-242.93 -9.22,-39.99 -15.39,-86.1 -15.39,-138.38 0,-110.71 21.5,-187.59 64.55,-239.87 43.05,-49.22 98.38,-73.78 166.04,-73.78 30.77,0 67.66,6.17 110.71,18.45l0 169.1c-24.61,-12.28 -46.11,-18.44 -64.55,-18.44 -27.67,0 -52.27,12.28 -73.77,36.89 -21.5,24.61 -30.77,58.44 -30.77,104.55 0,30.77 3.06,58.44 9.22,89.16 12.28,55.33 33.83,122.99 64.55,202.93 39.99,101.49 67.66,193.71 86.11,273.65 9.22,39.99 12.28,83.05 12.28,129.15 0,92.27 -21.5,162.99 -67.66,212.15 -43.05,49.21 -101.49,73.77 -166.04,73.77 -27.67,0 -64.55,-6.17 -107.6,-21.5l0 -175.26 -6.07 3.21zm-276.75 -900.93c-12.28,21.5 -24.61,49.22 -30.77,76.88 -6.16,27.67 -12.28,76.88 -15.39,147.6 -3.06,110.71 -6.16,199.87 -6.16,261.37 0,144.54 6.16,249.09 18.44,310.59 6.17,39.99 18.44,76.88 33.83,107.61 15.39,-30.77 24.61,-58.44 30.77,-86.11 6.16,-27.67 9.22,-76.88 12.28,-147.6 3.06,-129.16 6.16,-224.48 6.16,-285.98 0,-132.21 -6.16,-230.59 -15.39,-285.98 -6.17,-36.89 -18.44,-70.72 -33.83,-98.38l0.05 0zm-230.6 467.36c0,-245.98 27.67,-424.35 79.94,-535.02 39.99,-86.1 92.27,-129.15 150.66,-129.15 27.67,0 55.33,9.22 83.05,30.77 27.67,21.5 52.27,58.44 73.77,110.71 21.5,52.27 39.99,126.05 52.27,215.26 12.28,89.16 18.44,187.59 18.44,289.03 0,258.31 -30.77,442.8 -95.33,550.4 -36.89,61.5 -79.94,95.33 -129.15,95.33 -70.72,0 -126.05,-49.21 -162.99,-150.65 -46.11,-122.99 -70.72,-282.87 -70.72,-479.69l0.05 3.01zm-399.75 -651.89l412.03 0 0 166.04 -119.93 0 0 1103.91 -172.21 0 0 -1103.91 -119.93 0 0 -166.04 0.05 0zm-381.3 1085.46c27.67,12.28 52.27,18.44 73.77,18.44 30.77,0 55.33,-9.22 73.77,-30.77 18.44,-18.44 27.67,-49.22 27.67,-86.1 0,-30.77 -3.06,-61.5 -9.22,-89.16 -12.28,-55.33 -36.89,-129.15 -70.72,-215.26 -33.83,-89.16 -61.49,-169.1 -76.88,-242.93 -9.22,-39.99 -15.39,-86.1 -15.39,-138.38 0,-110.71 21.5,-187.59 64.55,-239.87 43.05,-49.22 98.38,-73.78 166.04,-73.78 30.77,0 67.66,6.17 107.6,18.45l0 169.1c-24.61,-12.28 -46.11,-18.44 -64.55,-18.44 -27.67,0 -52.27,12.28 -73.77,36.89 -21.5,24.61 -30.77,58.44 -30.77,104.55 0,30.77 3.06,58.44 9.22,89.16 12.28,55.33 33.83,122.99 64.55,202.93 39.99,101.49 67.66,193.71 86.1,273.65 9.22,39.99 12.28,83.05 12.28,129.15 0,92.27 -21.5,162.99 -67.66,212.15 -43.05,49.21 -101.49,73.77 -166.04,73.77 -27.67,0 -64.55,-6.17 -107.61,-21.5l0 -175.26 -2.96 3.21zm-329.03 -1085.46l292.14 0 0 169.1 -119.93 0 0 399.75 119.93 0 0 166.04 -119.93 0 0 368.97 119.93 0 0 166.04 -292.14 0 0 -1273.01 0 3.11zm-510.41 0l172.21 0 0 925.54c0,76.88 15.39,129.16 43.05,156.82 24.61,-33.83 36.89,-79.94 36.89,-141.44l0 -943.98 172.21 0 0 925.54c0,116.83 -24.61,209.09 -76.88,276.75 -39.99,52.27 -83.05,76.88 -132.21,76.88 -33.83,0 -67.66,-12.28 -101.49,-39.99 -33.83,-27.67 -58.44,-64.55 -76.88,-113.77 -24.61,-67.66 -33.83,-135.32 -33.83,-199.87l0 -925.54 -3.06 3.06zm-332.09 187.59l0 372.08c58.44,-36.89 86.1,-101.49 86.1,-187.59 0,-46.11 -6.16,-83.05 -21.5,-113.77 -15.39,-30.77 -36.89,-55.33 -64.55,-70.72l-0.05 0zm-172.21 -187.59l55.33 0c92.27,0 162.99,12.28 212.15,39.99 49.21,27.67 89.16,70.72 119.93,129.15 30.77,58.44 46.11,126.05 46.11,199.87 0,61.49 -12.28,119.93 -33.83,175.26 -21.5,55.33 -55.33,98.38 -101.49,135.32 -30.77,24.61 -73.78,46.11 -129.16,64.55l0 525.79 -172.21 0 0 -1273.01 3.16 3.06zm-350.53 0l292.14 0 0 169.1 -119.93 0 0 399.75 119.93 0 0 166.04 -119.93 0 0 368.97 119.93 0 0 166.04 -292.14 0 0 -1273.01 0 3.11zm-347.47 181.43l0 365.91c27.67,-12.28 49.22,-33.83 64.55,-67.66 15.39,-33.83 24.61,-70.72 24.61,-116.83 0,-46.11 -9.22,-86.1 -24.61,-116.83 -15.39,-30.77 -36.89,-52.27 -64.55,-64.55l0 -0.05zm-184.49 -181.43l92.27 0c107.6,0 190.65,30.77 252.15,92.27 58.44,61.5 89.16,147.6 89.16,258.31 0,61.5 -12.28,119.93 -36.89,169.1 -18.45,33.83 -43.05,67.66 -79.94,98.38 27.67,27.67 46.11,55.33 58.44,83.05 24.61,55.33 46.11,126.05 61.5,212.15 15.39,86.1 27.67,206.04 39.99,356.69l-172.21 0c-6.16,-190.65 -24.61,-329.03 -52.27,-418.19 -21.5,-67.66 -46.11,-113.77 -79.94,-141.43l0 556.57 -172.21 0 0 -1273.01 -0.05 6.12z"/>
    <g>
     <path class="fil0" d="M6235.9 516.62c36.89,0 64.55,12.28 89.16,36.89 24.61,24.61 36.89,55.33 36.89,89.16 0,36.89 -12.28,67.66 -36.89,92.27 -24.61,24.61 -55.33,36.89 -89.16,36.89 -36.89,0 -67.66,-12.28 -92.27,-36.89 -24.61,-24.61 -36.89,-55.33 -36.89,-92.27 0,-36.89 12.28,-64.55 36.89,-89.16 24.61,-24.61 55.33,-36.89 92.27,-36.89z"/>
     <path class="fil0" d="M129.15 516.62c36.89,0 64.55,12.28 89.16,36.89 24.61,24.61 36.89,55.33 36.89,89.16 0,36.89 -12.28,67.66 -36.89,92.27 -24.61,24.61 -55.33,36.89 -89.16,36.89 -36.89,0 -67.66,-12.28 -92.27,-36.89 -24.61,-24.61 -36.89,-55.33 -36.89,-92.27 0,-36.89 12.28,-64.55 36.89,-89.16 24.61,-24.61 55.33,-36.89 92.27,-36.89z"/>
    </g>
   </g>
  </g>
 </g>
</svg>
